<?xml version="1.0" encoding="utf-8"?>
<!-- Generator: Adobe Illustrator 27.2.0, SVG Export Plug-In . SVG Version: 6.00 Build 0)  -->
<svg version="1.1" id="Layer_1" xmlns="http://www.w3.org/2000/svg" xmlns:xlink="http://www.w3.org/1999/xlink" x="0px" y="0px"
	 viewBox="0 0 1920 1080" style="enable-background:new 0 0 1920 1080;" xml:space="preserve">
<style type="text/css">
	.st0{opacity:0.76;}
	.st1{fill:#813996;}
	.st2{fill:#FE3996;}
	.st3{fill:#360E1B;}
	.st4{fill:#F72C83;}
	.st5{fill:none;stroke:#813996;stroke-width:2;stroke-miterlimit:10;}
	.st6{fill:#39132A;}
	.st7{fill:#1A172F;}
	.st8{fill:#2A191B;}
	.st9{fill:#F92787;}
	.st10{fill:#3E9FD2;}
	.st11{fill:#FBF9F6;}
	.st12{fill:#36112C;}
	.st13{fill:#291B2F;}
	.st14{fill:#FA2A7E;}
	.st15{fill:#FAF8F7;}
</style>
<g>
	<g class="st0">
		<path class="st1" d="M1920,164.27c-1.03-0.03-2.58-0.06-4.46-0.07c-58.18-0.36-77.64,22.1-134.54,34.29
			c-12.81,2.74-48.7,9.51-90.33,5.33c-7.8-0.78-23.92-2.76-43.33-6.67c-18.69-3.76-22.53-5.7-46.79-11.3
			c-9.27-2.14-23.26-4.88-51.23-10.36c-33.32-6.53-47.11-8.91-55.43-10.31c-8.64-1.45-16.55-2.69-24.88-3.96
			c-149.43-22.74-187.65,30.55-394,51.94c-180.81,18.74-224.45-14.6-335.15-28.06c-84.4-10.26-152.41-4.53-181.85-1.73
			c-27.5,2.62-47.42,5.89-63.65,9.37c-30.5,6.54-44.37,11.12-69.55,17.25c0,0-48.56,11.84-93.69,15.5
			c-50.65,4.11-87.68-6.5-155.24-25.86c-55.29-15.84-94.85-33.65-163.1-35.25c-5.39-0.13-9.84-0.13-12.78-0.11
			C0,113.35,0,62.42,0,11.49h1920V164.27z"/>
	</g>
	<g>
		<g>
			<path class="st2" d="M1920,154.27c-1.03-0.03-2.58-0.06-4.46-0.07c-58.18-0.36-77.64,22.1-134.54,34.29
				c-12.81,2.74-48.7,9.51-90.33,5.33c-7.8-0.78-23.92-2.76-43.33-6.67c-18.69-3.76-22.53-5.7-46.79-11.3
				c-9.27-2.14-23.26-4.88-51.23-10.36c-33.32-6.53-47.11-8.91-55.43-10.31c-8.64-1.45-16.55-2.69-24.88-3.96
				c-149.43-22.74-187.65,30.55-394,51.94c-180.81,18.74-224.45-14.6-335.15-28.06c-84.4-10.26-152.41-4.53-181.85-1.73
				c-27.5,2.62-47.42,5.89-63.65,9.37c-30.5,6.54-44.37,11.12-69.55,17.25c0,0-48.56,11.84-93.69,15.5
				c-50.65,4.11-87.68-6.5-155.24-25.86c-55.29-15.84-94.85-33.65-163.1-35.25c-5.39-0.13-9.84-0.13-12.78-0.11
				C0,103.35,0,52.42,0,1.49h1920V154.27z"/>
		</g>
	</g>
</g>
<path class="st3" d="M1869.58,124.96c0.23-3.21,1.56-5.87,6.51-5.81c5.09,0.06,6.6,2.8,6.82,6.17c0.17,2.51,0.29,5.02,0.44,7.54
	c0.39,2.51,0.77,5.02,1.16,7.54c0.32,0.17,0.45,0.36,0.39,0.56c-0.07,0.21-0.15,0.31-0.25,0.32c-0.01,6.31-1.56,8.24-6.7,8.33
	c-4.57,0.08-5.73-1.36-6.51-7.67C1870.73,136.28,1871.03,130.56,1869.58,124.96z"/>
<path class="st4" d="M1874.4,140.68c-0.44-4.81-0.94-9.61-1.29-14.42c-0.14-1.93-1.1-4.43,2.83-4.83c4.2-0.42,3.7,2.28,3.9,4.16
	c0.64,5.68,1.17,11.38,1.55,17.07c0.13,1.93,0.66,4.49-3.38,4.52c-3.8,0.03-2.96-2.47-3.34-4.23c-0.16-0.75-0.27-1.51-0.4-2.26
	C1874.33,140.68,1874.37,140.68,1874.4,140.68z"/>
<path class="st5" d="M1657-121.75"/>
<path class="st6" d="M787.21,141.8c6.62,3.58,13.4,7.24,20.15,10.92c3.91,2.14,7.8,4.3,11.68,6.49c2.94,1.66,4.04,3.93,1.96,6.27
	c-2.25,2.52-5.78,3.19-9.2,1.4c-10.28-5.37-20.44-10.87-30.57-16.4c-3.24-1.77-4.3-4.27-2.19-7.02
	C780.87,141.07,783.89,141.08,787.21,141.8z"/>
<path class="st7" d="M1632.95,140.18c2.77,0.56,4.06,1.55,5.19,2.66c6.96,6.81,14,13.57,20.82,20.47c3.94,3.98,2.76,7.01-2.64,8.33
	c-2.74,0.67-4.65-0.14-6.14-1.58c-7.58-7.25-15.09-14.53-22.52-21.88c-1.83-1.81-2.42-3.96-0.39-5.99
	C1628.9,140.55,1631.1,139.82,1632.95,140.18z"/>
<path class="st8" d="M694.5,146.58c3.77-0.46,6.51-2.43,9.63-3.83c4.24-1.91,8.03-1.37,10.32,1.48c2.18,2.69,1.31,4.76-3.28,6.76
	c-9.52,4.15-18.82,8.64-29.23,11.49c-7.26-3.56-7.29-7.14,0.01-10.45C686.09,150.14,690.31,148.39,694.5,146.58z"/>
<path class="st9" d="M785.7,144.08c7.65,4.17,15.04,8.23,22.47,12.24c2.7,1.46,5.54,2.77,8.22,4.25c1.53,0.84,2.92,2.01,1.58,3.51
	c-1.37,1.54-3.21,1.4-5.17,0.35c-9.35-5-18.76-9.94-28.11-14.94c-1.2-0.65-2.32-1.44-2.79-2.61c-0.43-1.06-0.31-2.03,0.8-2.78
	C783.76,143.41,784.87,143.82,785.7,144.08z"/>
<path class="st10" d="M1658.05,167.7c-0.78,2.13-3.78,2.37-5.95,0.4c-4.08-3.68-7.89-7.53-11.81-11.31
	c-3.19-3.09-6.44-6.14-9.54-9.28c-1.27-1.29-2.96-2.81-0.52-4.3c2.37-1.46,3.87-0.13,5.31,1.26c6.87,6.69,13.78,13.35,20.64,20.05
	C1657.15,165.49,1658.41,166.45,1658.05,167.7z"/>
<path class="st11" d="M712.41,147.33c-0.29,1.08-1.49,1.4-2.47,1.8c-8.34,3.45-16.72,6.83-25.03,10.3c-2.06,0.86-3.4,0.46-4.58-0.91
	c-1.21-1.4-1.18-2.66,0.85-3.54c8.55-3.68,17.11-7.34,25.68-10.98c1.56-0.66,2.79-0.23,3.97,0.72
	C711.8,145.51,712.49,146.29,712.41,147.33z"/>
<path class="st3" d="M1067.58,122.72c3.95-1.11,7.67-1.24,9.56,2.26c1.94,3.6-0.74,5.74-4.71,7.23c-2.95,1.11-5.92,2.2-8.88,3.3
	c-2.86,1.27-5.73,2.54-8.6,3.81c-0.07,0.29-0.25,0.46-0.52,0.5s-0.43,0.02-0.48-0.05c-7.59,2.49-10.52,2.17-12.67-1.39
	c-1.92-3.17-0.63-4.56,6.63-7.61C1054.43,128.01,1061.43,125.95,1067.58,122.72z"/>
<path class="st4" d="M1050.6,132.33c5.61-2.21,11.18-4.47,16.82-6.63c2.26-0.86,4.89-2.53,6.92,0.07c2.17,2.78-1.28,3.5-3.45,4.39
	c-6.57,2.71-13.21,5.34-19.89,7.87c-2.27,0.85-5.13,2.25-6.77-0.57c-1.54-2.65,1.79-3.06,3.75-4.02c0.84-0.41,1.7-0.78,2.56-1.18
	C1050.57,132.29,1050.59,132.31,1050.6,132.33z"/>
<path class="st6" d="M1701.35,156.49c7.7-1.94,15.58-3.93,23.47-5.89c4.57-1.14,9.16-2.24,13.77-3.32c3.49-0.82,6.54-0.15,7.77,2.52
	c1.31,2.88-0.08,5.45-3.99,6.49c-11.76,3.12-23.59,6.1-35.44,9.03c-3.79,0.94-7.05,0.1-8.69-2.83
	C1696.82,159.95,1698.63,158.11,1701.35,156.49z"/>
<path class="st7" d="M1151.34,124.2c1.44,1.89,1.43,3.29,1.21,4.69c-1.38,8.58-2.65,17.16-4.2,25.72c-0.89,4.94-4.53,6.45-9.58,4.47
	c-2.55-1.01-3.15-2.61-2.89-4.43c1.34-9.22,2.77-18.43,4.31-27.63c0.38-2.27,1.95-4.11,5.27-4.45
	C1148.14,122.28,1150.36,122.95,1151.34,124.2z"/>
<path class="st8" d="M1796.23,149.31c2.21-2.38,2.29-5.25,3.17-7.93c1.19-3.65,4.34-5.34,8.6-4.59c4.04,0.7,5.36,2.62,4.02,6.52
	c-2.79,8.1-5.11,16.31-9.74,23.98c-8.41,1.47-11.78-1.02-9.76-7.32C1793.66,156.39,1794.98,152.86,1796.23,149.31z"/>
<path class="st9" d="M1702.86,158.78c8.93-2.22,17.61-4.35,26.24-6.53c3.15-0.79,6.21-1.76,9.36-2.53c1.8-0.44,3.86-0.6,4.64,1.12
	c0.8,1.76-0.43,2.8-2.7,3.38c-10.83,2.77-21.61,5.62-32.44,8.39c-1.39,0.36-2.89,0.57-4.4,0.16c-1.37-0.37-2.32-1.01-2.45-2.15
	C1701,159.57,1702.1,159.13,1702.86,158.78z"/>
<path class="st10" d="M1143.64,157.22c-2.52,1.08-4.86-0.37-4.58-2.93c0.51-4.8,1.38-9.58,2.1-14.38c0.59-3.91,1.13-7.82,1.83-11.72
	c0.29-1.6,0.51-3.58,3.61-3.32c3.02,0.25,2.86,2,2.58,3.76c-1.33,8.44-2.6,16.89-3.94,25.33
	C1145.05,155.17,1145.05,156.53,1143.64,157.22z"/>
<path class="st11" d="M1809.47,140.07c0.8,0.91,0.27,1.79-0.04,2.61c-2.62,6.96-5.32,13.9-7.9,20.87c-0.64,1.72-1.95,2.18-4.06,1.86
	c-2.16-0.32-3.31-1.22-2.71-2.94c2.54-7.24,5.12-14.47,7.73-21.69c0.47-1.31,1.74-1.68,3.45-1.66
	C1807.34,139.13,1808.55,139.3,1809.47,140.07z"/>
<path class="st3" d="M188.84,128.6c1.36-3.04,3.58-5.33,8.33-4.24c4.88,1.11,5.36,4.06,4.38,7.35c-0.73,2.45-1.5,4.9-2.25,7.35
	c-0.52,2.5-1.03,5-1.55,7.5c0.25,0.23,0.31,0.44,0.17,0.62c-0.14,0.19-0.25,0.27-0.35,0.25c-2.25,6.07-4.42,7.61-9.4,6.63
	c-4.43-0.86-5.03-2.5-3.55-8.72C185.92,139.74,188.24,134.3,188.84,128.6z"/>
<path class="st4" d="M187.9,144.73c1.29-4.72,2.5-9.45,3.87-14.15c0.55-1.88,0.51-4.49,4.43-4.06c4.2,0.47,2.75,2.96,2.29,4.81
	c-1.39,5.6-2.91,11.19-4.55,16.75c-0.56,1.88-0.95,4.46-4.85,3.65c-3.67-0.76-1.98-2.99-1.72-4.76c0.11-0.75,0.28-1.51,0.42-2.26
	C187.83,144.72,187.87,144.73,187.9,144.73z"/>
<path class="st6" d="M265.22,129.25c7.52,2.31,15.23,4.67,22.92,7.05c4.46,1.38,8.89,2.8,13.33,4.24c3.36,1.09,5.13,3.11,3.81,5.75
	c-1.42,2.84-4.66,4.13-8.53,2.99c-11.63-3.4-23.18-6.95-34.71-10.54c-3.69-1.15-5.48-3.4-4.26-6.44
	C258.83,129.67,261.77,129.14,265.22,129.25z"/>
<path class="st7" d="M624.27,145.37c-2.87-0.1-4.39-0.87-5.81-1.77c-8.68-5.54-17.41-11.03-25.97-16.68
	c-4.94-3.26-4.62-6.41,0.3-8.57c2.49-1.09,4.58-0.6,6.44,0.56c9.4,5.87,18.75,11.79,28.02,17.78c2.29,1.48,3.45,3.48,2.03,5.8
	C628.13,144.36,626.18,145.43,624.27,145.37z"/>
<path class="st8" d="M469.9,164.5c-3.69,0.74-6.16,2.91-9.09,4.54c-3.97,2.22-7.81,1.98-10.46-0.69c-2.51-2.52-1.92-4.63,2.39-6.97
	c8.93-4.85,17.6-10.02,27.59-13.65c7.69,2.99,8.18,6.55,1.35,10.4C477.81,160.32,473.83,162.39,469.9,164.5z"/>
<path class="st9" d="M264.44,131.74c8.7,2.7,17.13,5.34,25.57,7.93c3.07,0.94,6.23,1.71,9.29,2.68c1.74,0.55,3.45,1.44,2.6,3.14
	c-0.87,1.74-2.69,1.93-4.92,1.26c-10.61-3.21-21.26-6.34-31.88-9.56c-1.37-0.41-2.69-0.99-3.5-2.04c-0.74-0.95-0.92-1.92-0.06-2.85
	C262.36,131.43,263.56,131.64,264.44,131.74z"/>
<path class="st10" d="M592.18,122.49c0.18-2.2,3.04-2.92,5.71-1.34c5,2.94,9.78,6.1,14.65,9.16c3.97,2.51,7.98,4.97,11.88,7.55
	c1.6,1.05,3.66,2.28,1.69,4.12c-1.92,1.8-3.75,0.75-5.53-0.39c-8.55-5.44-17.14-10.85-25.68-16.3
	C593.66,124.5,592.17,123.76,592.18,122.49z"/>
<path class="st11" d="M451.98,165.11c0.15-1.09,1.3-1.5,2.22-1.98c7.85-4.06,15.75-8.06,23.57-12.15c1.93-1.01,3.32-0.71,4.67,0.56
	c1.38,1.31,1.52,2.56-0.39,3.58c-8.03,4.31-16.07,8.6-24.13,12.87c-1.47,0.78-2.75,0.44-4.04-0.41
	C452.83,166.88,452.04,166.16,451.98,165.11z"/>
<path class="st3" d="M1355.04,111.41c1.8-2.91,4.34-4.99,8.9-3.51c4.69,1.52,4.73,4.49,3.28,7.68c-1.08,2.37-2.21,4.74-3.31,7.11
	c-0.88,2.44-1.76,4.88-2.64,7.32c0.21,0.25,0.25,0.46,0.08,0.63c-0.16,0.17-0.29,0.24-0.39,0.22c-3.12,5.84-5.51,7.18-10.31,5.79
	c-4.28-1.24-4.63-2.91-2.25-8.97C1350.51,122.23,1353.62,117.02,1355.04,111.41z"/>
<path class="st4" d="M1351.75,127.36c1.97-4.58,3.87-9.18,5.92-13.73c0.82-1.83,1.17-4.42,5-3.66c4.1,0.82,2.3,3.18,1.57,4.97
	c-2.2,5.45-4.52,10.88-6.97,16.26c-0.83,1.82-1.6,4.35-5.35,3.22c-3.53-1.06-1.53-3.14-1.01-4.88c0.22-0.74,0.5-1.47,0.75-2.21
	C1351.68,127.35,1351.72,127.36,1351.75,127.36z"/>
<path class="st6" d="M1434.61,113.51c7.14,2.94,14.45,5.94,21.74,8.96c4.23,1.76,8.43,3.54,12.63,5.35
	c3.18,1.37,4.64,3.53,2.95,6.04c-1.83,2.71-5.23,3.71-8.91,2.25c-11.06-4.37-22.02-8.88-32.95-13.44c-3.5-1.46-4.95-3.84-3.29-6.76
	C1428.21,113.38,1431.2,113.11,1434.61,113.51z"/>
<path class="st7" d="M221.47,172.8c2.66-0.82,4.46-0.62,6.24-0.25c10.92,2.26,21.86,4.44,32.73,6.82c6.28,1.38,7.71,4.34,4.43,7.87
	c-1.67,1.79-3.83,2.02-6.15,1.55c-11.76-2.32-23.49-4.7-35.2-7.17c-2.89-0.61-5.05-2.06-5.02-4.61
	C218.52,174.95,219.7,173.36,221.47,172.8z"/>
<path class="st8" d="M1082.61,167.16c3.52-1.13,5.57-3.54,8.17-5.46c3.53-2.62,7.37-2.79,10.48-0.44c2.95,2.22,2.75,4.38-1.09,7.16
	c-7.96,5.76-15.6,11.8-24.83,16.45c-8.16-2.14-9.3-5.61-3.24-10.15C1075.54,172.14,1079.1,169.68,1082.61,167.16z"/>
<path class="st9" d="M1433.47,115.92c8.25,3.42,16.24,6.77,24.25,10.06c2.92,1.2,5.94,2.23,8.84,3.45c1.65,0.69,3.22,1.73,2.13,3.34
	c-1.12,1.66-2.96,1.69-5.07,0.83c-10.08-4.1-20.2-8.12-30.28-12.22c-1.3-0.53-2.53-1.21-3.18-2.33c-0.59-1.01-0.63-1.98,0.35-2.84
	C1431.45,115.43,1432.62,115.74,1433.47,115.92z"/>
<path class="st10" d="M263.16,183.3c1.05,2.06-1.16,3.62-4.45,3.05c-6.15-1.07-12.22-2.4-18.33-3.63c-4.98-1-9.98-1.96-14.93-3.05
	c-2.03-0.45-4.57-0.89-3.8-3.2c0.75-2.25,2.99-1.88,5.24-1.42c10.75,2.2,21.52,4.36,32.26,6.57
	C260.71,181.94,262.47,182.14,263.16,183.3z"/>
<path class="st11" d="M1100.24,164.65c0.05,1.1-1.01,1.63-1.84,2.2c-7.03,4.86-14.12,9.66-21.12,14.54
	c-1.73,1.21-3.16,1.06-4.73-0.05c-1.61-1.15-1.97-2.38-0.27-3.59c7.16-5.13,14.34-10.23,21.54-15.32c1.31-0.92,2.64-0.73,4.08-0.02
	C1099.08,162.98,1099.99,163.62,1100.24,164.65z"/>
<path class="st3" d="M1284.23,128.82c0.42,3.2-0.35,5.98-5.26,6.51c-5.04,0.54-7.08-1.98-7.99-5.29c-0.67-2.46-1.31-4.93-1.96-7.39
	c-0.89-2.44-1.78-4.87-2.68-7.31c-0.35-0.13-0.52-0.3-0.5-0.51s0.09-0.32,0.18-0.34c-1.26-6.24-0.13-8.32,4.93-9.02
	c4.5-0.62,5.94,0.67,7.98,6.8C1280.8,117.77,1281.66,123.46,1284.23,128.82z"/>
<path class="st4" d="M1276.28,113.86c1.41,4.7,2.88,9.39,4.19,14.1c0.53,1.89,1.98,4.25-1.82,5.1c-4.07,0.91-4.11-1.82-4.7-3.64
	c-1.79-5.54-3.46-11.1-5-16.68c-0.52-1.89-1.56-4.35,2.42-4.86c3.74-0.48,3.43,2.09,4.16,3.78c0.31,0.72,0.57,1.46,0.85,2.19
	C1276.35,113.85,1276.31,113.86,1276.28,113.86z"/>
<path class="st6" d="M1579.89,129.98c4.01-5.39,8.09-10.9,12.22-16.41c2.39-3.19,4.82-6.36,7.28-9.52c1.87-2.4,4.72-3.46,7.97-2.12
	c3.5,1.46,4.73,4.08,2.75,6.85c-5.97,8.35-12.12,16.62-18.32,24.87c-1.99,2.64-5.14,3.69-8.93,2.36
	C1579.58,134.87,1579.29,132.57,1579.89,129.98z"/>
<path class="st7" d="M1234.08,153.85c-1.4,1.91-2.98,2.61-4.67,3.18c-10.37,3.45-20.7,6.97-31.14,10.29
	c-6.03,1.92-9.57,0.29-9.9-4.03c-0.16-2.19,1.34-3.4,3.53-4.15c11.08-3.8,22.19-7.54,33.35-11.2c2.76-0.9,5.62-0.8,7.7,1.21
	C1234.63,150.77,1235,152.57,1234.08,153.85z"/>
<path class="st8" d="M1521.19,125.02c-0.45-2.9-2.92-5.06-4.62-7.5c-2.33-3.31-1.48-6.18,2.34-7.82c3.61-1.55,6.28-0.81,8.71,2.77
	c5.06,7.43,10.56,14.71,13.87,22.76c-4.94,5.4-9.63,5.28-13.67-0.42C1525.51,131.59,1523.39,128.29,1521.19,125.02z"/>
<path class="st9" d="M1583.02,130.9c4.66-6.23,9.22-12.25,13.71-18.3c1.64-2.2,3.06-4.49,4.72-6.68c0.95-1.25,2.33-2.42,4.42-1.55
	c2.14,0.89,2.14,2.3,0.97,3.89c-5.59,7.61-11.07,15.25-16.66,22.85c-0.72,0.98-1.64,1.91-3.12,2.38c-1.34,0.43-2.61,0.44-3.7-0.33
	C1582.34,132.43,1582.77,131.55,1583.02,130.9z"/>
<path class="st10" d="M1192.94,165.55c-2.5-1.11-2.06-3.38,0.98-4.5c5.68-2.1,11.51-3.96,17.28-5.92c4.71-1.59,9.39-3.23,14.15-4.74
	c1.95-0.62,4.3-1.48,5.58,0.69c1.25,2.12-0.8,2.9-2.93,3.61c-10.19,3.41-20.36,6.86-30.56,10.26
	C1195.96,165.44,1194.43,166.13,1192.94,165.55z"/>
<path class="st11" d="M1522.88,111.39c1.4,0.27,1.77,1.19,2.26,1.96c4.18,6.5,8.27,13.03,12.49,19.51c1.04,1.6,0.47,2.61-1.37,3.46
	c-1.89,0.87-3.53,0.79-4.59-0.79c-4.48-6.67-8.92-13.35-13.34-20.04c-0.8-1.22-0.19-2.14,1.09-3
	C1520.47,111.78,1521.52,111.29,1522.88,111.39z"/>
<path class="st12" d="M529.41,162.79c-0.91-2.28,0.49-4.01,2.51-5.44c9.66-6.8,19.35-13.59,29.13-20.29
	c3.6-2.46,8.07-2.45,10.76-0.26c2.63,2.15,2.05,4.69-1.86,7.6c-9.3,6.91-19.02,13.48-28.95,19.86
	C536.03,167.45,530.76,166.69,529.41,162.79z"/>
<path class="st7" d="M940.01,156.66c2.5,1.08,3.41,2.28,4.14,3.58c4.48,7.93,9.05,15.84,13.36,23.83c2.49,4.61,0.35,7.31-5.32,7.55
	c-2.87,0.12-4.45-1.04-5.42-2.71c-4.93-8.48-9.79-16.98-14.54-25.52c-1.17-2.11-1.03-4.3,1.61-5.88
	C935.98,156.23,938.34,155.95,940.01,156.66z"/>
<path class="st13" d="M1014.68,168.01c4.31,1.1,6.53,3.42,7.61,6.77c1.39,4.25,2.43,8.6,4.74,12.65c0.54,1.58,1.04,3.17,1.63,4.75
	c1.13,3.05-0.01,5.21-4.13,6.19c-3.86,0.92-7.14-0.4-8.33-3.59c-2.77-7.41-5.36-14.86-8.02-22.28c0.36-3.92,1.46-4.72,6.26-4.52
	L1014.68,168.01z"/>
<path class="st14" d="M532.88,162.32c-0.32-1.51,0.65-2.5,1.91-3.4c9.53-6.72,19.07-13.43,28.6-20.15c1.67-1.18,3.55-1.67,5.32-0.4
	c1.98,1.41,0.82,2.91-0.71,3.97c-9.96,6.93-19.98,13.81-30.02,20.66C535.99,164.34,534.1,164.39,532.88,162.32z"/>
<path class="st10" d="M955.18,188.13c-1.46,1.91-4.44,1.56-5.89-0.76c-2.73-4.35-5.14-8.81-7.68-13.22
	c-2.07-3.6-4.2-7.19-6.16-10.82c-0.81-1.49-1.93-3.29,0.92-4.26c2.78-0.95,3.79,0.62,4.71,2.25c4.43,7.8,8.91,15.58,13.33,23.38
	C955.05,185.82,955.95,187,955.18,188.13z"/>
<path class="st15" d="M1020.58,195.8c-0.54-0.82-1.33-1.67-1.67-2.61c-2.24-6.1-4.42-12.21-6.53-18.34
	c-0.53-1.55-1.43-3.29,1.71-4.02c3.17-0.73,4.22,0.82,4.88,2.63c2.37,6.46,4.66,12.94,6.96,19.42c0.42,1.16,0.27,2.16-1.3,2.91
	C1023.29,196.43,1022.1,195.91,1020.58,195.8z"/>
<path class="st7" d="M348.51,151.91c2.12,1.48,2.65,2.81,2.98,4.2c2.03,8.5,4.15,16.99,6.01,25.51c1.07,4.92-1.81,7.18-7.4,6.44
	c-2.83-0.38-4.03-1.77-4.48-3.57c-2.31-9.11-4.54-18.23-6.66-27.36c-0.52-2.26,0.26-4.37,3.29-5.45
	C344.7,150.8,347.08,150.94,348.51,151.91z"/>
<path class="st13" d="M410.8,114.63c4.45,0.69,7.02,2.8,8.62,6.03c2.05,4.09,3.76,8.32,6.68,12.13c0.78,1.52,1.53,3.05,2.36,4.56
	c1.6,2.93,0.81,5.18-3.13,6.52c-3.69,1.27-7.16,0.25-8.84-2.81c-3.91-7.1-7.65-14.26-11.45-21.39c-0.26-3.93,0.71-4.82,5.51-5.06
	L410.8,114.63z"/>
<path class="st10" d="M354.02,185.18c-1.98,1.61-4.78,0.76-5.51-1.76c-1.38-4.7-2.42-9.46-3.59-14.2
	c-0.95-3.87-1.97-7.72-2.82-11.61c-0.35-1.59-0.91-3.54,2.15-3.99c2.98-0.45,3.51,1.26,3.93,3c2.02,8.36,4.1,16.71,6.1,25.07
	C354.57,182.91,355.1,184.21,354.02,185.18z"/>
<path class="st15" d="M421,141.68c-0.66-0.77-1.58-1.54-2.07-2.43c-3.18-5.85-6.3-11.72-9.36-17.61c-0.77-1.49-1.93-3.14,1.07-4.14
	c3.03-1.02,4.32,0.43,5.26,2.17c3.36,6.2,6.66,12.42,9.95,18.64c0.6,1.12,0.6,2.12-0.84,3C423.79,142.05,422.53,141.64,421,141.68z"
	/>
<path class="st7" d="M85.1,115.02c1.16,2.01,0.95,3.39,0.52,4.76c-2.61,8.41-5.13,16.83-7.91,25.21c-1.61,4.84-5.44,6.02-10.17,3.63
	c-2.39-1.22-2.76-2.86-2.23-4.65c2.67-9.05,5.43-18.08,8.29-27.1c0.71-2.23,2.54-3.92,5.88-3.98
	C82.2,112.83,84.31,113.69,85.1,115.02z"/>
<path class="st13" d="M148.78,144.35c0.69,3.43-1.02,6-4.42,8.26c-4.32,2.88-8.91,5.57-12.59,8.98c-1.6,1.09-3.22,2.15-4.79,3.27
	c-3.04,2.16-6.08,2.37-9.09,0.01c-2.83-2.21-2.78-5.04,0.39-7.3c7.37-5.26,14.88-10.41,22.31-15.61c4.74-1.54,6.17-1.16,8.12,2.2
	L148.78,144.35z"/>
<path class="st10" d="M72.65,147.18c-2.66,0.86-4.78-0.78-4.13-3.3c1.21-4.73,2.77-9.41,4.18-14.11c1.16-3.83,2.26-7.68,3.52-11.49
	c0.52-1.56,1.03-3.52,4.07-3c2.97,0.51,2.55,2.23,2.02,3.95c-2.55,8.28-5.03,16.56-7.6,24.83
	C74.35,145.27,74.15,146.62,72.65,147.18z"/>
<path class="st15" d="M119.08,161.02c0.71-0.74,1.34-1.66,2.28-2.32c6.09-4.3,12.22-8.56,18.39-12.8c1.56-1.07,3.18-2.47,5.46-0.66
	c2.3,1.82,0.97,3.24-0.85,4.52c-6.45,4.55-12.96,9.07-19.46,13.58c-1.16,0.81-2.4,1.17-3.98,0.44
	C119.58,163.15,119.66,162.1,119.08,161.02z"/>
<path class="st2" d="M1929.17,174.5"/>
<path class="st2" d="M1922.29,167.58"/>
<path class="st2" d="M2464-120"/>
<path class="st2" d="M461.78-48.89"/>
</svg>
